<?xml version="1.0" encoding="utf-8"?>
<!-- Generator: Adobe Illustrator 26.1.0, SVG Export Plug-In . SVG Version: 6.00 Build 0)  -->
<svg version="1.1" id="Layer_1" xmlns="http://www.w3.org/2000/svg" xmlns:xlink="http://www.w3.org/1999/xlink" x="0px" y="0px"
	 viewBox="0 0 756.2 173.8" style="enable-background:new 0 0 756.2 173.8;" xml:space="preserve">
<style type="text/css">
	.st0{fill:#FFFFFF;}
	.st1{fill-rule:evenodd;clip-rule:evenodd;fill:#FFFFFF;}
</style>
<g>
	<g>
		<polygon class="st0" points="0,86.9 86.9,0 173.6,86.9 124.2,86.9 86.8,49.6 49.5,86.9 86.9,124.3 86.9,86.9 124.2,86.9 
			124.2,136.9 86.9,173.8 		"/>
		<path class="st1" d="M274.8,93.9c-0.3,2.2-0.4,3.6-1.1,5.8c-0.6,2.2-1.4,4.3-2.5,6.3c-1.1,2.1-2.5,4.1-4,5.9
			c-3.5,4.3-8,7.6-13.1,9.9c-5.2,2.2-10.8,3.4-16.5,3.3c-3.6,0-7.2-0.5-10.7-1.4c-3.4-1-6.6-2.4-9.6-4.2c-2.9-1.7-5.6-3.8-7.9-6.3
			c-2.3-2.4-4.4-5.1-6-8c-1.7-3-3-6.1-3.9-9.4c-0.9-3.4-1.4-6.9-1.4-10.4c0-7.1,1.8-14.1,5.3-20.4c3.3-6,8.2-10.9,14.1-14.4
			c3-1.8,6.3-3.1,9.7-4c3.5-1,7.2-1.4,10.8-1.4c3.6,0,7.1,0.4,10.6,1.3c3.3,0.8,6.4,2,9.4,3.6c2.9,1.6,5.6,3.6,8,5.8
			c2.5,2.4,4.7,5,6.5,7.9l-6.8,4c-3-4.7-7.1-8.6-11.9-11.4c-4.9-2.8-10.5-4.1-16.1-4c-2.9,0-5.7,0.4-8.4,1.2
			c-2.6,0.8-5.1,1.9-7.4,3.4c-2.3,1.5-4.5,3.2-6.3,5.2c-1.9,2-3.6,4.3-5,6.7c-1.4,2.4-2.5,5.1-3.2,7.8c-0.7,2.8-1.1,5.6-1.1,8.5
			c0,2.9,0.4,5.8,1.1,8.6c0.7,2.7,1.8,5.3,3.1,7.8c1.4,2.4,3,4.6,5,6.6c1.9,2,4.1,3.7,6.4,5.2c2.4,1.5,5,2.6,7.8,3.3
			c2.8,0.8,5.7,1.2,8.6,1.2c3.6,0,7.2-0.6,10.7-1.8c3.3-1.2,6.3-2.9,9-5.2c2.6-2.3,4.8-5,6.3-8.1c1.6-3.3,2.5-5.7,2.6-9.4h-25.6
			v-6.9h33.7C275.1,86.4,275.2,91,274.8,93.9z"/>
		<path class="st0" d="M323.1,98.4c0-2.5-0.4-5-1.3-7.4c-0.8-2.2-2.1-4.3-3.6-6c-1.6-1.7-3.5-3.1-5.7-4.1c-2.3-1-4.9-1.5-7.4-1.5
			c-2.6,0-5.1,0.5-7.4,1.5c-2.1,1-4,2.4-5.6,4.2c-1.6,1.8-2.8,3.9-3.5,6.2c-0.8,2.5-1.2,5-1.2,7.6c0,2.5,0.4,5,1.3,7.4
			c0.8,2.3,2.1,4.4,3.6,6.3c1.6,1.8,3.5,3.3,5.7,4.4c2.3,1.1,4.9,1.7,7.4,1.6c2.5,0.1,5-0.5,7.3-1.5c2.3-1.1,4.3-2.6,5.8-4.6
			c1.5-1.9,2.7-4.1,3.4-6.5C322.7,103.6,323.1,101,323.1,98.4z M322.8,123.8v-8.6h-0.2c-0.8,1.6-1.8,3-3.1,4.1
			c-1.3,1.2-2.8,2.3-4.4,3.1c-1.6,0.8-3.4,1.5-5.1,1.9c-1.8,0.4-3.6,0.6-5.4,0.6c-3.4,0-6.8-0.6-9.9-2c-2.9-1.3-5.5-3.1-7.7-5.5
			c-2.2-2.4-3.9-5.2-5-8.3c-1.2-3.3-1.8-6.8-1.8-10.4c0-3.4,0.6-6.8,1.8-10.1c1.1-3,2.8-5.8,5-8.1c2.2-2.3,4.8-4.2,7.7-5.5
			c3.1-1.4,6.5-2,9.9-2c1.8,0,3.6,0.2,5.4,0.6c1.7,0.4,3.4,1,5,1.8c1.6,0.8,3.1,1.8,4.5,2.9c1.3,1.2,2.5,2.5,3.4,4h0.2v-8.2h7.4
			v49.5H322.8z"/>
		<path class="st0" d="M395.4,123.7v-31c0.3-3.6-0.6-7.2-2.5-10.3c-1-1.1-2.2-2-3.5-2.5c-1.4-0.5-2.8-0.8-4.3-0.7
			c-1.7-0.1-3.3,0.2-4.8,0.9c-1.5,0.7-2.8,1.8-3.7,3.2c-2,3.6-3,7.7-2.7,11.8v28.6h-7.4V94.4c0-2.3-0.2-4.5-0.5-6.7
			c-0.3-1.7-0.9-3.3-1.8-4.7c-0.8-1.2-1.9-2.2-3.3-2.8c-1.6-0.7-3.3-1-5-0.9c-1.6-0.1-3.3,0.3-4.7,1.1c-1.5,0.8-2.7,1.9-3.5,3.3
			c-2.2,4.1-3.2,8.7-2.8,13.3v26.8h-7.4V74.3h7.4v6.3h0.2c1.2-2.3,3-4.2,5.2-5.5c2.4-1.3,5.1-2,7.9-1.9c3,0,5.9,0.7,8.4,2.2
			c2.7,1.6,4.8,4,6.1,6.9c1.2-2.8,3.3-5.1,5.9-6.7c2.7-1.6,5.8-2.4,9-2.3c2.2-0.2,4.4,0.2,6.5,1c2.1,0.8,3.9,2.1,5.4,3.7
			c2.8,3.9,4.2,8.6,3.9,13.4v32.5H395.4z"/>
		<path class="st0" d="M449.4,88.6c-0.8-1.9-1.9-3.6-3.3-5.1c-1.4-1.5-3.1-2.6-5-3.3c-2.2-0.9-4.6-1.3-7-1.2c-2.3,0-4.5,0.4-6.6,1.2
			c-2,0.8-3.7,1.9-5.3,3.4c-1.5,1.4-2.7,3.1-3.6,4.9c-0.9,2-1.5,4.1-1.7,6.3h34.4C450.9,92.7,450.3,90.6,449.4,88.6z M416.5,100.2
			c0,2.7,0.6,5.3,1.6,7.8c0.9,2.2,2.2,4.2,3.9,5.9c1.7,1.6,3.6,2.9,5.8,3.8c2.3,0.9,4.7,1.4,7.1,1.3c3.4,0.1,6.8-0.9,9.7-2.7
			c2.8-1.9,5.1-4.5,6.8-7.4l6.3,1.7c-1,2.2-2.3,4.3-3.9,6.1c-1.6,1.8-3.4,3.3-5.4,4.5c-2.1,1.3-4.3,2.2-6.6,2.9
			c-2.4,0.6-4.9,0.9-7.4,0.9c-3.6,0.1-7.1-0.6-10.4-2c-3-1.3-5.7-3.1-7.9-5.5c-2.2-2.4-3.9-5.2-5-8.2c-1.2-3.3-1.8-6.7-1.8-10.2
			c0-3.4,0.6-6.9,1.8-10.1c1.1-3,2.9-5.8,5.1-8.2c2.2-2.4,4.9-4.2,7.8-5.5c3.2-1.4,6.6-2.1,10.1-2c3.6-0.1,7.1,0.6,10.5,2
			c3,1.2,5.6,3.1,7.8,5.5c2.2,2.5,3.8,5.4,4.8,8.5c1.1,3.6,1.7,7.3,1.6,11L416.5,100.2z"/>
		<polygon class="st0" points="544.7,123.8 533.1,63.8 532.9,63.8 507.7,125.8 505.9,125.8 481.1,63.8 480.9,63.8 469.1,123.8 
			461.3,123.8 477.2,44.3 481.3,44.3 507.1,108.9 533.2,44.3 537.4,44.3 552.9,123.8 		"/>
		<path class="st0" d="M598.3,98.4c0-2.5-0.4-5-1.3-7.4c-0.8-2.2-2-4.2-3.5-6c-1.6-1.7-3.5-3.1-5.7-4.1c-2.3-1-4.9-1.5-7.4-1.5
			c-2.6,0-5.1,0.5-7.4,1.5c-2.1,1-4,2.4-5.6,4.2c-1.6,1.8-2.8,3.9-3.6,6.2c-0.8,2.5-1.2,5-1.2,7.6c0,2.5,0.4,5,1.3,7.4
			c0.8,2.3,2.1,4.4,3.6,6.3c1.6,1.8,3.5,3.3,5.7,4.4c2.3,1.1,4.9,1.7,7.4,1.6c2.6,0.1,5.2-0.5,7.6-1.7c2.1-1.1,4-2.6,5.5-4.5
			c1.5-1.9,2.7-4.1,3.4-6.5C597.9,103.6,598.3,101,598.3,98.4z M598,123.8v-8.6h-0.2c-0.8,1.6-1.8,3-3.1,4.1
			c-1.3,1.2-2.8,2.3-4.4,3.1c-1.6,0.8-3.4,1.5-5.1,1.9c-5.1,1.2-10.5,0.7-15.3-1.3c-2.9-1.3-5.5-3.1-7.7-5.5c-2.2-2.4-3.9-5.2-5-8.3
			c-1.2-3.3-1.8-6.8-1.8-10.4c0-3.4,0.6-6.8,1.8-10.1c1.1-3,2.8-5.8,5-8.1c2.2-2.3,4.8-4.2,7.7-5.5c3.1-1.4,6.5-2,9.9-2
			c1.8,0,3.6,0.2,5.4,0.6c1.7,0.4,3.4,1,5,1.8c1.6,0.8,3,1.8,4.3,2.9c1.3,1.2,2.5,2.5,3.4,4h0.2v-8.2h7.4v49.5H598z"/>
		<polygon class="st0" points="642.8,123.8 621.8,99.7 619.7,101.6 619.7,123.9 612.3,123.9 612.3,39 619.7,39 619.7,94.6 
			640.8,74.3 650.3,74.3 627.4,96 652.1,123.8 		"/>
		<path class="st0" d="M690.8,88.6c-0.8-1.9-1.9-3.6-3.3-5.1c-1.4-1.5-3.1-2.6-5-3.3c-2.2-0.9-4.6-1.3-7-1.2c-2.3,0-4.5,0.4-6.6,1.2
			c-2,0.8-3.7,1.9-5.3,3.4c-1.5,1.4-2.7,3.1-3.6,4.9c-0.9,2-1.5,4.1-1.7,6.3h34.4C692.3,92.7,691.6,90.6,690.8,88.6z M658,100.2
			c0,2.7,0.5,5.3,1.6,7.8c0.9,2.2,2.2,4.2,3.9,5.9c1.7,1.6,3.6,2.9,5.8,3.8c2.2,0.9,4.6,1.4,7.1,1.3c3.4,0.1,6.8-0.9,9.7-2.7
			c2.8-1.9,5.1-4.5,6.8-7.4l6.3,1.7c-1.9,4.4-5.2,8.1-9.4,10.6c-2,1.3-4.2,2.2-6.5,2.9c-2.4,0.6-4.9,0.9-7.4,0.9
			c-3.5,0.1-7.1-0.6-10.3-2c-3-1.3-5.7-3.1-7.9-5.5c-2.2-2.4-4-5.2-5.1-8.2c-1.2-3.3-1.8-6.7-1.8-10.2c0-3.4,0.6-6.9,1.8-10.1
			c1.1-3,2.8-5.8,5-8.2c2.2-2.4,4.9-4.3,7.8-5.5c3.2-1.4,6.6-2.1,10.1-2c3.6-0.1,7.1,0.6,10.5,2c3,1.2,5.6,3.1,7.8,5.5
			c2.2,2.5,3.8,5.4,4.8,8.5c1.1,3.6,1.7,7.3,1.6,11H658z"/>
		<path class="st0" d="M725.9,80.6c-0.9-0.2-1.9-0.3-2.8-0.3c-1.5,0-3,0.4-4.3,1.2c-1.3,0.8-2.3,1.9-3,3.3c-2,4.4-2.8,9.2-2.5,14
			v24.9h-7.4V74.3h7.4V81h0.2c0.9-2.4,2.5-4.4,4.6-5.8c2.1-1.4,4.6-2.1,7.1-1.9c0.8,0,1.7,0.1,2.5,0.3c0.8,0.2,1.7,0.4,2.5,0.8
			l-1.6,7.2C727.7,81.1,726.8,80.8,725.9,80.6z"/>
		<polygon class="st0" points="735.4,50.5 735.4,63.9 733.9,63.9 733.9,50.5 730.2,50.5 730.2,49.2 739,49.2 739,50.5 		"/>
		<polygon class="st0" points="754.7,63.9 752.6,52.8 747.9,63.9 747.5,63.9 742.9,52.8 740.7,63.9 739.2,63.9 742.1,49.2 
			742.9,49.2 747.7,61.1 752.5,49.2 753.3,49.2 756.2,63.9 		"/>
	</g>
</g>
</svg>
