<?xml version="1.0" encoding="UTF-8" standalone="no"?>
<!-- Created with Inkscape (http://www.inkscape.org/) -->

<svg
   version="1.1"
   id="svg2"
   width="717.33331"
   height="573.21332"
   viewBox="0 0 717.33331 573.21332"
   sodipodi:docname="Maya-full.eps"
   xmlns:inkscape="http://www.inkscape.org/namespaces/inkscape"
   xmlns:sodipodi="http://sodipodi.sourceforge.net/DTD/sodipodi-0.dtd"
   xmlns="http://www.w3.org/2000/svg"
   xmlns:svg="http://www.w3.org/2000/svg">
  <defs
     id="defs6" />
  <sodipodi:namedview
     id="namedview4"
     pagecolor="#ffffff"
     bordercolor="#000000"
     borderopacity="0.25"
     inkscape:showpageshadow="2"
     inkscape:pageopacity="0.0"
     inkscape:pagecheckerboard="0"
     inkscape:deskcolor="#d1d1d1" />
  <g
     id="g8"
     inkscape:groupmode="layer"
     inkscape:label="ink_ext_XXXXXX"
     transform="matrix(1.3333333,0,0,-1.3333333,0,573.21333)">
    <g
       id="g10"
       transform="scale(0.1)">
      <path
         d="m 1773.23,1825.52 -2.58,-7.23 h -668.71 l -6.72,7.49 -4.13,2.58 1601.49,2470.72 -918.57,-2473.82 -0.78,0.26"
         style="fill:#091314;fill-opacity:1;fill-rule:nonzero;stroke:none"
         id="path12" />
      <path
         d="m 3612.97,1825.52 -0.78,-0.26 -918.58,2473.82 1601.5,-2470.98 -3.62,-2.32 v -7.49 h -675.94 l -2.58,7.23"
         style="fill:#091314;fill-opacity:1;fill-rule:nonzero;stroke:none"
         id="path14" />
      <path
         d="M 30.918,2964.76 2692.58,4299.08 1091.09,1828.36 l -2.07,-3.1 -1.29,0.52 -1049.3159,1130.97 -7.4961,8.01"
         style="fill:#1b4a4c;fill-opacity:1;fill-rule:nonzero;stroke:none"
         id="path16" />
      <path
         d="m 2693.61,4299.08 2661.67,-1334.32 -7.23,-7.5 -1049.58,-1131.48 -1.29,-0.52 -2.07,2.84 -1601.5,2470.98"
         style="fill:#1b4a4c;fill-opacity:1;fill-rule:nonzero;stroke:none"
         id="path18" />
      <path
         d="m 1089.02,1825.26 2.07,3.1 4.13,-2.58 V 16.2813 L 1089.02,0 37.3789,451.93 l 1.0352,2.32 v 2502.5 L 1087.73,1825.78 l 1.29,-0.52"
         style="fill:#256969;fill-opacity:1;fill-rule:nonzero;stroke:none"
         id="path20" />
      <path
         d="m 1095.22,1825.78 6.72,-7.49 h -6.72 z"
         style="fill:#256969;fill-opacity:1;fill-rule:nonzero;stroke:none"
         id="path22" />
      <path
         d="m 4291.49,1825.78 3.62,2.32 2.07,-2.84 1.29,0.52 1049.58,1131.48 V 454.25 l 1.03,-2.32 L 4297.18,0 l -5.69,15.25 v 1795.03 l 7.49,8.01 h -7.49 v 7.49"
         style="fill:#256969;fill-opacity:1;fill-rule:nonzero;stroke:none"
         id="path24" />
      <path
         d="m 1774.01,1825.26 918.57,2473.82 h 1.03 l 918.58,-2473.82 0.78,0.26 2.58,-7.23 h -2.33 -918.05 -3.62 -918.06 -2.84 l 2.58,7.23 0.78,-0.26"
         style="fill:#1b4a4c;fill-opacity:1;fill-rule:nonzero;stroke:none"
         id="path26" />
      <path
         d="m 4291.49,1818.29 h 7.49 l -7.49,-8.01 z"
         style="fill:#256969;fill-opacity:1;fill-rule:nonzero;stroke:none"
         id="path28" />
      <path
         d="m 3615.55,1818.29 h 675.94 v -8.01 l -480.08,-514.72 -195.86,522.73"
         style="fill:#0b1c1e;fill-opacity:1;fill-rule:nonzero;stroke:none"
         id="path30" />
      <path
         d="m 3613.22,1818.29 h 2.33 L 3811.41,1295.56 2694.65,108.789 h -3.1 l -1116.76,1186.771 195.86,522.73 h 2.84 918.06 3.62 918.05"
         style="fill:#256969;fill-opacity:1;fill-rule:nonzero;stroke:none"
         id="path32" />
      <path
         d="m 1101.94,1818.29 h 668.71 l -195.86,-522.73 z"
         style="fill:#0b1c1e;fill-opacity:1;fill-rule:nonzero;stroke:none"
         id="path34" />
      <path
         d="m 1095.22,1818.29 h 6.72 L 1574.79,1295.56 1095.22,16.2813 V 1818.29"
         style="fill:#112e2f;fill-opacity:1;fill-rule:nonzero;stroke:none"
         id="path36" />
      <path
         d="M 4291.49,1810.28 V 15.25 l -480.08,1280.31 z"
         style="fill:#112e2f;fill-opacity:1;fill-rule:nonzero;stroke:none"
         id="path38" />
    </g>
  </g>
</svg>
