<?xml version="1.0" standalone="no"?>
<!DOCTYPE svg PUBLIC "-//W3C//DTD SVG 20010904//EN"
 "http://www.w3.org/TR/2001/REC-SVG-20010904/DTD/svg10.dtd">
<svg version="1.0" xmlns="http://www.w3.org/2000/svg"
 width="512.000000pt" height="512.000000pt" viewBox="0 0 512.000000 512.000000"
 preserveAspectRatio="xMidYMid meet">
<metadata>
Created by potrace 1.10, written by Peter Selinger 2001-2011
</metadata>
<g transform="translate(0.000000,512.000000) scale(0.100000,-0.100000)"
fill="#e60a0a" stroke="none">
<path d="M1135 5114 c-11 -3 -65 -16 -120 -30 -336 -81 -657 -384 -825 -779
-117 -276 -169 -622 -141 -945 17 -196 19 -209 58 -385 53 -239 138 -477 235
-655 59 -109 50 -104 128 -65 37 19 121 52 186 74 326 108 656 126 954 52 299
-74 620 -257 868 -495 l54 -51 35 40 c161 181 289 434 347 687 55 239 68 563
32 802 -135 918 -572 1525 -1233 1713 -127 36 -129 36 -343 39 -118 1 -224 0
-235 -2z"/>
<path d="M3096 5112 c122 -106 173 -156 256 -252 294 -341 480 -754 555 -1230
25 -164 25 -581 0 -730 -67 -392 -196 -697 -431 -1015 -79 -107 -318 -344
-439 -434 -83 -62 -96 -75 -85 -88 6 -8 59 -51 117 -94 209 -156 389 -223 536
-199 151 25 242 85 297 198 33 66 33 68 34 216 l1 150 88 49 c48 26 91 45 96
40 16 -16 61 -148 90 -267 36 -145 49 -349 30 -461 -23 -133 -68 -234 -148
-333 l-34 -42 220 0 221 0 0 2250 0 2250 -707 0 c-389 0 -703 -4 -697 -8z"/>
<path d="M705 2030 c-22 -5 -52 -11 -68 -14 -43 -8 -67 -17 -67 -25 0 -13 170
-173 235 -221 246 -182 520 -270 839 -271 82 0 153 4 158 9 12 12 -203 217
-322 306 -126 94 -300 183 -395 202 -99 20 -143 24 -234 23 -58 -1 -124 -5
-146 -9z"/>
<path d="M0 1025 l0 -405 1303 0 1302 0 -94 97 c-51 54 -138 150 -192 214
l-98 116 -73 -18 c-321 -81 -706 -107 -1020 -68 -395 48 -760 191 -1050 410
l-78 58 0 -404z"/>
</g>
</svg>
