<?xml version="1.0" encoding="UTF-8"?>
<svg width="210px" height="29px" viewBox="0 0 210 29" version="1.1" xmlns="http://www.w3.org/2000/svg" xmlns:xlink="http://www.w3.org/1999/xlink">
    <!-- Generator: Sketch 53 (72520) - https://sketchapp.com -->
    <title>rpg-maker-logo</title>
    <desc>Created with Sketch.</desc>
    <g id="rpg-maker-logo" stroke="none" stroke-width="1" fill="none" fill-rule="evenodd">
        <path d="M118.995764,6.5190767 C118.071495,8.89618895 117.175964,11.1992723 116.275892,13.5142417 L121.413084,13.5142417 C120.609207,11.1879781 119.81436,8.88790323 118.995764,6.5190767 Z M120.829834,0.0493147959 C121.175044,0.156881122 121.350119,0.407967857 121.482934,0.729187245 C124.027681,6.88453588 126.578116,13.0375665 129.130996,19.18966 C129.537076,20.1683607 130.050675,21.0853624 130.832999,21.8273284 C131.891231,22.8310835 133.153426,23.2494628 134.60312,23.0045903 C136.232778,22.7293369 137.135892,21.6376447 137.13679,19.995643 C137.139235,15.5398522 137.140682,11.0841107 137.133897,6.62836922 C137.132999,6.0470869 137.119428,5.46121786 137.045686,4.88565663 C136.881986,3.60723997 136.260468,2.97658861 134.96719,2.71100187 C134.675864,2.65117704 134.403647,2.56250017 134.205422,2.32980969 C133.93565,2.01317704 134.02905,1.68697636 134.431038,1.57452738 C134.580019,1.53285221 134.742321,1.52234711 134.898387,1.52323486 C136.735201,1.53418384 138.571865,1.56145765 140.408629,1.56121105 C142.095814,1.56101378 143.782999,1.53235901 145.470183,1.51702058 C145.561488,1.51618214 145.655287,1.51001718 145.743647,1.52737772 C145.963925,1.57072976 146.121188,1.69600187 146.183355,1.91498146 C146.245522,2.1338131 146.151124,2.30593895 145.979342,2.42918895 C145.867432,2.50953078 145.733968,2.56476888 145.603847,2.61542024 C145.225607,2.76268895 144.840083,2.89230119 144.464788,3.04627738 C143.490675,3.44586582 142.98915,4.17762262 142.935016,5.21239983 C142.916555,5.56459201 142.893455,5.91717874 142.893255,6.26961752 C142.890411,10.6843743 142.889314,15.0990818 142.894602,19.5137893 C142.895101,19.9476056 142.915907,20.3843811 142.969641,20.8145971 C143.130397,22.1011515 143.719036,22.7130614 145.00483,22.9964526 C145.235187,23.0472519 145.466491,23.1333641 145.670853,23.2489696 C145.879606,23.3670903 146.026192,23.5693505 145.962179,23.8258131 C145.896021,24.0911532 145.657532,24.1703114 145.418394,24.1756872 C144.787346,24.1899406 144.1558,24.1811124 143.524502,24.1823947 C140.524032,24.1884611 137.523562,24.2024185 134.523091,24.1986702 C132.345358,24.1959083 130.167724,24.1577842 127.990041,24.1578828 C126.111716,24.1580308 124.23344,24.1899406 122.355115,24.2075971 C122.18054,24.209274 122.005714,24.2166226 121.831537,24.2093233 C121.523048,24.1963522 121.292293,24.0193437 121.243098,23.7695393 C121.198743,23.5444934 121.33101,23.3215682 121.613105,23.1903777 C121.784937,23.1104304 121.973533,23.0663386 122.149756,22.9945291 C122.509984,22.8477536 122.881288,22.719177 123.222158,22.5362009 C123.89756,22.1736515 124.128016,21.6943624 123.942963,20.9545665 C123.792236,20.3518301 123.570711,19.7658131 123.370041,19.1758505 C123.021088,18.1501974 122.66106,17.1281447 122.313455,16.1019985 C122.260967,15.9472332 122.193113,15.884893 122.016691,15.8854849 C119.863555,15.892291 117.710368,15.888444 115.557232,15.8953488 C115.471815,15.8955954 115.33451,15.9558641 115.309214,16.0213114 C114.933419,16.9935019 114.555928,17.965643 114.214859,18.9500155 C114.036491,19.4650121 113.990889,20.0108828 114.064132,20.5556192 C114.192856,21.5133097 114.757047,22.1601872 115.622792,22.5420699 C116.073875,22.741075 116.569763,22.8387281 117.036313,23.0067604 C117.302742,23.1027366 117.592671,23.2018692 117.797731,23.3819849 C118.124132,23.6686311 117.995009,24.0509577 117.568123,24.1539866 C117.408815,24.192456 117.238579,24.2004951 117.073533,24.1992128 C115.477703,24.1868828 113.881972,24.154973 112.286192,24.1575869 C110.366356,24.1607434 108.446569,24.2061668 106.526733,24.2070053 C104.80637,24.2077944 103.086106,24.1581787 101.365793,24.1580308 C99.68699,24.1578335 98.0082373,24.1932451 96.3294348,24.2104577 C95.8735118,24.2150937 95.6241461,24.0623998 95.5762488,23.7630291 C95.529449,23.4701192 95.7302687,23.2467009 96.1532623,23.098643 C96.5520577,22.9590189 96.9504041,22.8166821 97.3421148,22.6589083 C98.2434833,22.2957179 98.691124,21.6218624 98.6757569,20.6655529 C98.6602901,19.7060869 98.6282088,18.7467196 98.5894918,17.7878454 C98.4193065,13.5745597 98.244082,9.36147126 98.0703542,5.1483335 C98.0684084,5.10118384 98.0618225,5.05428078 98.0078382,4.99046105 C97.9677741,5.08742364 97.9261133,5.18384371 97.8878952,5.28149677 C95.5092423,11.3519662 93.1314376,17.4227808 90.7497912,23.4921158 C90.6694633,23.696842 90.5738182,23.903393 90.4449444,24.0805002 C89.9656215,24.7393131 89.1281162,24.7860682 88.5864269,24.1752434 C88.4215303,23.9892587 88.2952509,23.7534611 88.2071397,23.5199321 C86.1076885,17.9586889 84.0157712,12.3946345 81.9228061,6.83097466 C81.7695845,6.42369235 81.6193564,6.01537432 81.4662844,5.60804269 C81.4417869,5.54284201 81.409556,5.48045255 81.3400549,5.42294575 C81.2865196,6.087825 81.2319865,6.75265493 81.1796486,7.41763282 C80.9672537,10.1165563 80.753412,12.8154304 80.5444098,15.5146005 C80.4354932,16.9212485 80.3232338,18.3278471 80.2404612,19.7360733 C80.2206037,20.0740121 80.282521,20.4248726 80.3582088,20.7584219 C80.5867192,21.7660733 81.2615232,22.3862689 82.229,22.6870699 C82.8447306,22.8785291 83.4903471,22.9748012 84.1118154,23.1508233 C84.3639252,23.2222383 84.6283086,23.3503709 84.8144597,23.5271821 C85.1039394,23.8020903 84.9882373,24.1497944 84.6012666,24.2616515 C84.4448517,24.3068284 84.2736686,24.3188624 84.1093207,24.3179747 C82.1144954,24.3071243 80.1197199,24.280541 78.1248945,24.2796039 C76.5873393,24.2789134 75.049784,24.3096889 73.5121789,24.3229066 C73.3980734,24.323893 73.275087,24.3177774 73.17101,24.2777298 C72.7630342,24.1206464 72.6985723,23.6513199 73.0540107,23.400677 C73.1860278,23.3075121 73.346484,23.2458624 73.5023999,23.1947672 C74.5929629,22.8373471 75.6164697,22.3634338 76.4627562,21.5722468 C77.4057356,20.6906566 77.8482373,19.5818012 78.0357855,18.3342094 C78.4271967,15.7306209 78.8498411,13.1315699 79.25632,10.5301515 C79.4703115,9.16069065 79.7274105,7.7953233 79.8753435,6.41876037 C80.0782088,4.53040663 79.1030485,3.2745784 77.2182373,2.85230289 C77.033583,2.81092364 76.8443885,2.76273827 76.6767477,2.67953588 C76.4129629,2.54864133 76.2871825,2.30554439 76.3255502,2.08222466 C76.3612238,1.87473656 76.5540606,1.69600187 76.8587078,1.67711241 C77.355144,1.64638622 77.8542245,1.65166344 78.3522074,1.65097296 C80.4965125,1.64816173 82.6408175,1.65274847 84.7851226,1.64485731 C85.2517227,1.64313112 85.2529202,1.62409371 85.4159209,2.04839133 C87.3270257,7.02263112 89.2376814,11.9971175 91.1487862,16.9714066 C91.174082,17.0372978 91.203469,17.1016107 91.2477741,17.2066124 C91.2954718,17.10674 91.3286009,17.0456328 91.354645,16.9817145 C93.3994134,11.9620019 95.4451796,6.94273316 97.4825139,1.92006139 C97.5706251,1.70285731 97.6769971,1.63770595 97.9112951,1.63814983 C100.54585,1.64268724 103.180454,1.63430289 105.814959,1.6295682 C105.881416,1.62942024 105.948373,1.62680629 106.014282,1.6333165 C106.324317,1.66394405 106.561758,1.86255459 106.598879,2.11877058 C106.63106,2.34066003 106.48612,2.55613793 106.192999,2.67485051 C105.909157,2.7898148 105.613041,2.87498997 105.327104,2.98526888 C103.908294,3.53237262 103.481808,4.10837772 103.520226,5.60153248 C103.555301,6.96216514 103.658629,8.3213182 103.739506,9.68066854 C103.84523,11.457757 103.958387,13.2344015 104.068601,15.0112434 C104.169235,16.6325801 104.262835,18.2543607 104.374895,19.8749083 C104.415158,20.4576702 104.544681,21.0253896 104.799834,21.5603114 C105.191245,22.3811396 105.854324,22.8119474 106.7525,22.9430393 C107.845058,23.1025393 108.745878,22.7578437 109.504153,21.9896889 C110.222115,21.262223 110.725536,20.3969577 111.155664,19.4862196 C114.128244,13.1927264 117.099827,6.89873997 120.064075,0.60144915 C120.197838,0.317219558 120.389927,0.141197449 120.680205,0.0493147959 L120.829834,0.0493147959 Z M189.646569,3.09087721 L189.646569,12.534668 C190.124795,12.4206408 190.580668,12.3332463 191.023319,12.2023024 C192.25049,11.8392599 193.348537,11.256202 194.127917,10.2199946 C195.166341,8.83938741 195.374645,7.28182109 195.007781,5.63715612 C194.795785,4.68681429 194.201858,4.0133534 193.301438,3.61958469 C192.138579,3.1110983 190.900383,3.10162891 189.646569,3.09087721 Z M209.967574,28.4584793 C209.781523,28.7019214 209.508808,28.7558772 209.226063,28.8009554 C205.252478,29.4344673 201.820882,28.2625813 198.817517,25.7233551 C196.024702,23.3621731 194.122029,20.3968245 192.860433,17.0104827 C192.745878,16.7029741 192.643697,16.3906816 192.544959,16.0777973 C192.262264,15.1818058 191.619542,14.6379078 190.759584,14.3227548 C190.406391,14.1933398 190.033191,14.1171901 189.627211,14.0052344 L189.627211,14.3317803 C189.627211,16.1614929 189.62287,17.9912548 189.630753,19.820918 C189.63235,20.2054146 189.660091,20.592032 189.707938,20.9737667 C189.859513,22.1820014 190.43024,22.79835 191.637453,23.0842071 C191.742378,23.1090643 191.849798,23.1238109 191.954274,23.1501476 C192.227689,23.2192446 192.468473,23.3427905 192.625037,23.5850983 C192.796021,23.8496 192.718138,24.119231 192.41818,24.2208789 C192.233875,24.283367 192.028615,24.3124656 191.833034,24.3113313 C190.204175,24.3021578 188.575365,24.2680286 186.946555,24.2696561 C185.076662,24.2715796 183.206819,24.3024044 181.336926,24.3201102 C181.245622,24.320998 181.151972,24.3283959 181.063312,24.3120711 C180.827068,24.2685218 180.642165,24.151782 180.583341,23.9060218 C180.52297,23.6540966 180.645807,23.4732905 180.853512,23.3499912 C180.972856,23.279168 181.109912,23.2364571 181.240682,23.1853619 C181.672706,23.0166391 182.113362,22.8671017 182.536206,22.678651 C183.357696,22.3126 183.763326,21.6560065 183.824645,20.7812224 C183.847047,20.4622224 183.871844,20.142384 183.871944,19.8229401 C183.87359,15.2281663 183.872692,10.6333925 183.866356,6.03856939 C183.865957,5.71167823 183.826691,5.38389932 183.790468,5.05814252 C183.69183,4.17014082 183.203925,3.55655408 182.388073,3.20145204 C181.994118,3.03001667 181.575814,2.91381939 181.178266,2.74973265 C180.992264,2.67294184 180.797482,2.57119524 180.66317,2.42880918 C180.442443,2.19488571 180.537589,1.91593333 180.843783,1.81088231 C180.928252,1.78198095 181.02215,1.77039082 181.112058,1.76827007 C184.202485,1.69601667 187.292913,1.62440442 190.38344,1.55599796 C191.988152,1.52048776 193.591616,1.54051156 195.188095,1.72467143 C196.455379,1.87090442 197.70121,2.11049966 198.862371,2.66130238 C200.926498,3.64049626 201.797931,5.35248265 201.365208,7.57113061 C200.960276,9.64739252 199.731808,11.159782 197.995728,12.3107565 C197.521944,12.6248738 197.011438,12.8849367 196.507318,13.1758738 C196.507318,13.1716816 196.50153,13.1901765 196.508116,13.2017173 C197.764524,15.3919078 198.997931,17.5954146 200.28642,19.7670609 C201.35523,21.5684639 202.578359,23.2674299 204.064274,24.7655167 C205.29843,26.0098534 206.673733,27.0525218 208.37828,27.6009571 C208.653939,27.6896833 208.938579,27.7527633 209.221324,27.8183585 C209.519884,27.8875541 209.784118,28.0065626 209.967574,28.2615456 L209.967574,28.4584793 Z M9.09730577,3.0905369 L9.09730577,12.5341304 C9.57423378,12.4203498 10.0301568,12.3319689 10.4735068,12.2018634 C11.6080257,11.8688566 12.6303849,11.3372886 13.4055239,10.4298549 C14.4894512,9.16085833 14.7647113,7.67169847 14.548325,6.06920187 C14.4001426,4.97168997 13.8537634,4.12925969 12.8172345,3.65130221 C11.6395082,3.10819337 10.3756664,3.10296548 9.09730577,3.0905369 Z M30.6680328,3.05744337 L30.6680328,3.40647908 C30.6680328,8.83865255 30.6637919,14.2708753 30.6741696,19.7029995 C30.6752673,20.2908413 30.719722,20.885292 30.8171133,21.4647002 C30.9574127,22.2991406 31.4890734,22.8351968 32.3011832,23.0942733 C32.5377762,23.1697325 32.793578,23.1954281 33.0194939,23.2919961 C33.2407698,23.3865913 33.4742195,23.5074247 33.6322309,23.6794519 C33.8759587,23.9446934 33.7609551,24.2654689 33.4109551,24.3673634 C33.2392231,24.4173243 33.0511262,24.4312818 32.870613,24.4301474 C31.1335353,24.4189519 29.3965075,24.3904944 27.6594797,24.3883736 C26.238325,24.3865981 24.8171205,24.4138719 23.3959658,24.4286679 C23.3499145,24.4291611 23.303913,24.434241 23.21201,24.4400607 C23.3233713,24.5607954 23.401953,24.6516423 23.4865217,24.7366202 C24.7289594,25.9849519 26.1028154,27.0413804 27.8141981,27.5969179 C28.089608,27.6863345 28.3788881,27.7340267 28.6552459,27.8210267 C28.8504277,27.8824791 29.0540413,27.9501951 29.219387,28.064025 C29.4968924,28.2550403 29.4572773,28.532809 29.1499359,28.6778583 C29.0541411,28.7230845 28.9464718,28.75169 28.8410478,28.7682121 C26.9122808,29.0696543 25.0025232,29.053724 23.1221525,28.4558209 C20.9744547,27.77294 19.1337491,26.5961713 17.5206557,25.0620318 C14.9345973,22.6025556 13.1514184,19.6441611 12.0669423,16.2811474 C11.6950891,15.1282495 10.9173058,14.5020369 9.80154669,14.1859468 C9.57932288,14.1229655 9.34936565,14.0865675 9.10768354,14.0345845 C9.09605845,14.1087614 9.08009266,14.1630624 9.08019244,14.2173634 C9.08333571,16.244059 9.08094084,18.2708532 9.09880257,20.2974502 C9.10209551,20.671343 9.16386315,21.0495267 9.24099786,21.4170573 C9.3966144,22.1584808 9.86027085,22.6567087 10.5740912,22.9197801 C10.8296935,23.0139808 11.0981183,23.0764196 11.3636992,23.1412257 C11.6562723,23.2126406 11.913072,23.3346577 12.0778689,23.5941287 C12.2400214,23.849309 12.164583,24.1163753 11.8773485,24.2154094 C11.6859088,24.2814485 11.4720171,24.3121747 11.2684034,24.3110896 C9.70590164,24.3026066 8.14344975,24.2676389 6.58099786,24.2696611 C4.64444761,24.2721764 2.70794726,24.3024587 0.771397006,24.3200165 C0.680142552,24.3208549 0.58634355,24.3271679 0.497982894,24.3096594 C0.261040627,24.2628056 0.0800784034,24.1371883 0.0259444048,23.8932036 C-0.0273414113,23.6530165 0.0932002851,23.4764519 0.291674982,23.3568515 C0.410669993,23.2852393 0.545680684,23.2373991 0.67719886,23.1886219 C0.995866001,23.0705012 1.31682823,22.9584468 1.63659301,22.8433345 C2.74451889,22.4444859 3.28615823,21.6543838 3.29967926,20.4987733 C3.30162509,20.3347359 3.31364932,20.1707478 3.31364932,20.0067597 C3.31315039,15.3130998 3.31504633,10.61944 3.30471846,5.92582942 C3.30382038,5.52712874 3.24489665,5.12408793 3.17005702,4.73105901 C3.05819672,4.14346378 2.72471133,3.67571548 2.19050606,3.40238554 C1.69970777,3.15129881 1.16989309,2.9747835 0.658638632,2.76216616 C0.514447612,2.70219337 0.363770492,2.64715255 0.236243763,2.56069507 C0.0625659301,2.44296888 -0.04914469,2.27108963 0.0215039202,2.05314575 C0.0891589451,1.84432602 0.278602994,1.78262704 0.477077691,1.77167806 C0.825431219,1.75244337 1.17448325,1.74322058 1.5233856,1.73636514 C4.83039914,1.67131241 8.13716322,1.58510153 11.444526,1.55259983 C13.2410763,1.53494337 15.0333856,1.65740425 16.7835852,2.11543656 C17.5338275,2.3117784 18.2548824,2.5795352 18.9166144,2.98731071 C20.3780827,3.88788895 21.0133215,5.20645187 20.8919316,6.88056071 C20.730278,9.10946718 19.5672701,10.7764247 17.7931718,12.0649519 C17.2808197,12.4370199 16.7025089,12.720559 16.1537349,13.0435046 C16.0837847,13.0846372 16.009444,13.1184706 15.9367997,13.1558549 C17.6386529,16.0194077 19.0863507,19.0102053 21.014918,21.7226917 C21.3680613,22.2193413 21.7488453,22.696707 22.1088239,23.1887206 C22.1930934,23.3039808 22.2769138,23.3258294 22.4025445,23.2747835 C22.8091732,23.1095624 23.2260299,22.9662393 23.6231789,22.7814383 C24.4000143,22.4200233 24.7998076,21.7916406 24.8566358,20.9539451 C24.8894155,20.4714502 24.9116679,19.9872291 24.9121169,19.5037478 C24.9163578,15.2531764 24.9187028,11.0026543 24.9099216,6.75208282 C24.9086244,6.13854541 24.8744975,5.52165425 24.8023022,4.91245697 C24.7224733,4.23874949 24.3687313,3.69657772 23.7541981,3.38300289 C23.2705346,3.13615765 22.7460086,2.96782942 22.2419886,2.75905901 C22.0904633,2.69632432 21.9345973,2.63186344 21.8028795,2.53790935 C21.6388311,2.42092296 21.517541,2.22832942 21.629052,2.04924949 C21.7101782,1.91894677 21.9019173,1.80413044 22.0587812,1.78188724 C22.4021454,1.73325799 22.75469,1.74425629 23.1035923,1.73725289 C25.8455167,1.68226139 28.5872915,1.59846718 31.3294654,1.58470697 C33.4350036,1.57415255 35.5319102,1.73562534 37.5807199,2.26995527 C38.4271561,2.49075969 39.2422594,2.79175799 39.9971917,3.23790425 C41.7980827,4.3022733 42.5236778,5.88267466 42.2956165,7.91592976 C42.0562794,10.0498464 40.9570848,11.7169026 39.3462865,13.0810369 C37.5948895,14.5643277 35.5765146,15.5213277 33.2989451,15.9224944 C32.9736921,15.9798039 32.63866,15.9908022 32.3074198,16.0031321 C32.1698147,16.0082614 32.0244761,15.9774366 31.8928582,15.9332954 C31.6337634,15.8464434 31.5355738,15.6293379 31.6906914,15.4094706 C31.8236565,15.2209706 31.9988311,15.018809 32.2032431,14.9289978 C33.4957733,14.3609825 34.3305346,13.3527393 34.9711618,12.1639859 C35.7811262,10.6611151 36.1873058,9.06537534 35.9961155,7.35121888 C35.7445545,5.0955318 34.5812473,3.80675799 32.321789,3.31020697 C31.7904277,3.19341786 31.2439986,3.14355561 30.6680328,3.05744337 Z M168.216222,11.4515575 C168.265067,11.464134 168.288217,11.4754776 168.311218,11.4751816 C169.607341,11.4589061 170.904561,11.4662548 172.199037,11.4117565 C172.689486,11.3911408 173.186222,11.2669537 173.65821,11.1211153 C174.688602,10.8027565 175.40811,10.1134639 175.886136,9.16682109 C175.956036,9.02838061 176.029928,8.88703027 176.129066,8.76915612 C176.235338,8.64270034 176.360919,8.66583129 176.406671,8.82804388 C176.446086,8.96771735 176.461403,9.11853707 176.459857,9.26412891 C176.44888,10.2812497 176.417797,11.2983211 176.418445,12.3153925 C176.419094,13.4473296 176.447683,14.5792667 176.460855,15.7113024 C176.462351,15.8418024 176.456713,15.9756561 176.427775,16.1020133 C176.41166,16.1722446 176.350042,16.2683687 176.291418,16.2827207 C176.234989,16.296481 176.144133,16.2318228 176.089949,16.1797905 C176.032323,16.1244537 175.99161,16.047219 175.957882,15.9731408 C175.274547,14.4734759 174.040391,13.7243585 172.437576,13.6076187 C171.072651,13.5081901 169.697797,13.5402973 168.327383,13.5154895 C168.295951,13.5149469 168.264269,13.5295456 168.216222,13.5410371 L168.216222,13.7621867 C168.216272,15.2637752 168.212729,16.7653636 168.217519,18.2669027 C168.220712,19.2584265 168.411104,20.2089163 169.087056,20.9770711 C170.178367,22.2171663 171.599272,22.6252378 173.20558,22.3714384 C174.799664,22.1196119 176.15521,21.3343432 177.383577,20.3393177 C179.075851,18.9684759 180.39682,17.2950575 181.409949,15.3818959 C181.496863,15.2179078 181.594853,14.9778194 181.809443,15.0512565 C182.047383,15.1326833 181.929536,15.3727224 181.88094,15.547265 C181.102558,18.3453704 180.318139,21.1418483 179.546143,23.9416799 C179.482629,24.1721017 179.39367,24.2412973 179.147148,24.2393738 C175.032914,24.2068721 170.918631,24.1766391 166.804297,24.1670711 C164.493998,24.1616952 162.183649,24.1955286 159.873299,24.2092395 C159.766478,24.2098806 159.655666,24.1999673 159.553385,24.1715099 C159.34583,24.1137565 159.207177,23.9755626 159.16357,23.7643262 C159.120313,23.5548653 159.218053,23.3908772 159.385694,23.2790201 C159.507433,23.1977412 159.648331,23.1409741 159.786386,23.0876102 C160.188225,22.9322037 160.597348,22.794651 160.995495,22.6308602 C161.921361,22.2500626 162.380826,21.5460235 162.424782,20.5672735 C162.442843,20.1658109 162.465844,19.7640031 162.466143,19.3623432 C162.469137,15.1366289 162.470334,10.9108653 162.465894,6.6851017 C162.465046,5.87975986 162.417198,5.07644014 162.139892,4.30715102 C161.685566,3.04698265 160.711603,2.40745374 159.387341,2.66588912 C156.514297,3.22650646 153.85774,4.32012211 151.670427,6.28112381 C150.412622,7.40881939 149.306842,8.70168673 148.132907,9.92042653 C148.058866,9.99726667 147.987469,10.0764741 147.90285,10.1673704 C148.091646,10.4612173 148.282886,10.7473211 148.462551,11.0403296 C149.610391,12.9121612 151.00615,14.6085626 152.348873,16.3397344 C154.14712,18.6581068 155.975851,20.9544333 157.836813,23.2240286 C158.919942,24.5450082 160.107498,25.7844622 161.53923,26.7516714 C162.110855,27.1378449 162.754675,27.4196085 163.36367,27.7523687 C163.572922,27.8666918 163.797091,27.9671561 163.977056,28.117532 C164.22213,28.3222582 164.181068,28.5912973 163.889443,28.7306748 C163.714618,28.8142224 163.510406,28.8802616 163.318966,28.881248 C160.555088,28.8956493 157.869743,28.5084401 155.347498,27.3180592 C153.136435,26.2745031 151.351161,24.7138296 149.803078,22.8658687 C148.289073,21.058498 147.034711,19.075549 145.793421,17.0838704 C145.00985,15.8266119 144.23012,14.5669367 143.439914,13.3137718 C143.34856,13.1688211 143.359536,13.0842871 143.463613,12.953935 C145.115024,10.8857122 146.760349,8.81265612 148.407269,6.74088231 C148.776179,6.27678367 149.177619,5.83379388 149.504219,5.34227347 C149.717861,5.02070884 149.86285,4.64005918 149.967726,4.26651156 C150.092408,3.82248605 149.931004,3.41525306 149.533706,3.17605238 C149.221125,2.9878483 148.852615,2.8905898 148.510448,2.74958469 C148.27615,2.65296735 148.027982,2.57583129 147.816336,2.44296395 C147.639415,2.33194524 147.525259,2.13772415 147.591817,1.91045884 C147.658773,1.68191122 147.859793,1.59012721 148.072387,1.57986871 C148.544725,1.55708299 149.01841,1.5588585 149.491546,1.55787211 C152.167612,1.5523483 154.843677,1.54598605 157.519693,1.5458381 C159.572694,1.54573946 161.625594,1.55382789 163.678595,1.55949966 C164.277013,1.56112721 164.875431,1.56941293 165.473848,1.57020204 C169.829714,1.57602177 174.18558,1.5820881 178.541396,1.58129898 C178.75454,1.58124966 178.834668,1.62928707 178.865801,1.85324796 C179.072458,3.33979388 179.297975,4.82377517 179.517105,6.30864422 C179.523093,6.34913571 179.541553,6.39751837 179.526585,6.42967483 C179.468011,6.55539082 179.39826,6.67602687 179.332701,6.79858639 C179.213855,6.7278619 179.055096,6.68446054 178.98295,6.58172755 C178.638039,6.0908483 178.319472,5.58196735 177.984989,5.08378878 C177.888895,4.94061361 177.762615,4.81741293 177.664475,4.67547075 C176.896371,3.56424796 175.790591,3.02325986 174.479401,2.8171034 C172.468011,2.50086531 170.489151,2.64699966 168.532943,3.19173605 C168.280933,3.26191803 168.207939,3.37412041 168.209137,3.63339422 C168.220962,6.13597585 168.216222,8.6386068 168.216222,11.1412378 L168.216222,11.4515575 Z M60.004474,24.5389122 C59.1451654,24.6084037 58.3271183,24.6879071 57.5072751,24.7382626 C55.2876814,24.8745823 53.0864982,24.7894565 50.9434904,24.12655 C47.7259351,23.1312286 45.2016942,21.2761163 43.6326066,18.2815704 C42.5524212,16.2201537 42.2035189,14.0139837 42.4608175,11.7146486 C42.7613735,9.02869626 43.8863129,6.73197517 45.859335,4.85392925 C47.5155859,3.27737483 49.495144,2.27036463 51.7237684,1.76010272 C54.6822288,1.08274558 57.6565053,1.05438673 60.5707605,1.9307983 C63.3021076,2.75226769 65.5943956,4.29607381 67.4349016,6.46712823 C67.5069473,6.55215544 67.5922644,6.67037483 67.5849301,6.7667949 C67.5730057,6.92392755 67.5306465,7.1225381 67.4229273,7.21437143 C67.3445952,7.28119966 67.1204754,7.24268095 66.9970898,7.18117925 C66.8478097,7.10670646 66.7280663,6.96609592 66.6095702,6.84111973 C64.979114,5.12178469 63.0506964,3.88958061 60.6996344,3.38050238 C58.9980805,3.01198537 57.2667406,2.87936463 55.6041033,3.47776088 C52.0303614,4.76401939 49.7380235,7.24711973 49.1681447,10.9861469 C48.5396914,15.1096214 49.915144,18.6154156 53.1319508,21.3403306 C54.7660991,22.7245381 56.7112309,23.312084 58.8766408,23.095669 C59.6762274,23.0157711 60.0275246,22.625652 60.0275745,21.8360925 C60.0276743,20.6216929 60.034809,19.4071452 60.0232837,18.1928442 C60.0197413,17.8170772 59.9828703,17.4393867 59.9306821,17.0667762 C59.807047,16.1838544 59.3193421,15.5539429 58.4657712,15.2713901 C57.7757498,15.0429412 57.0531483,14.9121946 56.350953,14.7172337 C56.0921575,14.6453748 55.8214875,14.5531963 55.6073464,14.4005024 C55.246819,14.1433986 55.3036472,13.7177694 55.7102758,13.5393306 C55.9014661,13.4553884 56.1261846,13.4090772 56.3358354,13.4086333 C60.1018653,13.4010874 63.8678453,13.4028136 67.6338753,13.403652 C68.0692922,13.4037507 68.3393136,13.5440653 68.4172965,13.8013663 C68.4967762,14.0637473 68.3136187,14.3953731 67.9632694,14.6034037 C67.8501618,14.6705772 67.7249301,14.7182201 67.6039893,14.7720279 C67.3467904,14.886499 67.0813592,14.985385 66.8324426,15.1150959 C66.1307962,15.4807031 65.7788004,16.0454633 65.7843885,16.8469582 C65.7984583,18.8737524 65.778052,20.9007439 65.7952153,22.9274888 C65.800953,23.6106163 65.628722,24.22805 65.2523785,24.7877303 C64.2420934,26.2901571 62.9237185,27.4744224 61.3565766,28.3900432 C61.1464768,28.5128493 60.9014519,28.5968901 60.6614661,28.645766 C60.3069758,28.7178714 60.0837042,28.5430823 60.0295702,28.189016 C60.0061703,28.0357796 60.0057712,27.8782031 60.0054718,27.7225993 C60.0034761,26.7542558 60.004474,25.7860109 60.004474,24.8176673 L60.004474,24.5389122 Z M206.829813,3.1849398 C207.387718,3.24678673 207.624161,2.97986837 207.511203,2.44815238 C207.456021,2.18823741 207.266627,2.04900782 207.003441,2.1011881 C206.937383,2.11430714 206.84074,2.20352653 206.837597,2.26192109 C206.820982,2.57002143 206.829813,2.87950272 206.829813,3.1849398 Z M207.157012,4.53131905 L205.915323,4.53131905 C206.692308,5.32309796 208.013926,5.08730034 208.362679,4.53348912 C208.240939,4.53348912 208.122892,4.51898912 208.009934,4.53654694 C207.787411,4.57116939 207.662679,4.47376293 207.55451,4.29103333 C207.39595,4.02317789 207.211196,3.77026633 207.035473,3.51242279 C206.993512,3.45092109 206.94312,3.39504184 206.89657,3.33659796 C206.873819,3.34389728 206.851118,3.3511966 206.828416,3.35854524 L206.828416,3.85948571 C206.828416,4.29083605 206.828416,4.29083605 207.157012,4.53131905 Z M206.187839,3.24096701 L206.186542,3.24096701 C206.186542,2.93789728 206.200013,2.63389048 206.178259,2.33239898 C206.171823,2.24253844 206.081966,2.11228503 206.002237,2.08708265 C205.925301,2.06271871 205.777069,2.1224449 205.72044,2.19262687 C205.241018,2.78628844 205.230191,3.64149252 205.673142,4.27909796 C205.75352,4.39475272 205.824767,4.47672211 205.99146,4.42217449 C206.150419,4.3701915 206.189934,4.27036837 206.188587,4.12551633 C206.185993,3.83068299 206.187839,3.53580034 206.187839,3.24096701 Z M205.985522,1.94257585 C206.082315,1.94755714 206.160797,1.95436327 206.239378,1.95515238 C206.596364,1.95880204 206.953997,1.94957925 207.310134,1.96822211 C207.480768,1.97709966 207.655893,2.01892279 207.8161,2.07914218 C208.052643,2.16806565 208.186257,2.3511898 208.192842,2.60824422 C208.199628,2.87111837 208.083277,3.06538878 207.844539,3.18474252 C207.772892,3.22049932 207.698452,3.25073231 207.602458,3.29373912 C207.847532,3.63690578 208.077989,3.96507925 208.314632,4.28886327 C208.457974,4.4849585 208.513954,4.47948401 208.658844,4.27362347 C209.281609,3.38887687 208.962344,2.15642619 207.983591,1.66682925 C207.311531,1.33066599 206.441695,1.44232585 205.985522,1.94257585 Z M207.171581,5.18184626 C206.081666,5.18411497 205.219614,4.33912007 205.218516,3.2674517 C205.217468,2.19405714 206.078523,1.33614048 207.15786,1.33535136 C208.239493,1.33451293 209.112721,2.19001293 209.116014,3.25383946 C209.119407,4.32175952 208.254211,5.17962687 207.171581,5.18184626 Z" id="Combined-Shape" fill="#FFFFFF"></path>
    </g>
</svg>