<svg version="1.2" baseProfile="tiny-ps" xmlns="http://www.w3.org/2000/svg" viewBox="0 0 1486 1679" width="1486" height="1679">
	<title>uni-svg</title>
	<style>
		tspan { white-space:pre }
		.shp0 { fill: #cccccc } 
		.shp1 { fill: #a6a6a6 } 
		.shp2 { fill: #ffffff } 
	</style>
	<path id="Layer" class="shp0" d="M1485.9 1175.3L1485.9 391.77L807.63 0L807.63 300.82L1073.35 454.73C1083.84 461.73 1083.84 475.72 1073.35 479.21L758.69 661.11C748.2 668.1 737.71 664.6 730.72 661.11L416.05 479.21C405.56 475.72 405.56 458.23 416.05 454.73L681.77 300.82L681.77 0L0 391.77L0 1175.3L0 1171.8L0 1175.3L258.72 1024.89L258.72 717.07C258.72 706.58 272.71 699.58 279.7 703.08L594.36 884.97C604.85 891.97 608.35 898.96 608.35 909.46L608.35 1273.24C608.35 1283.74 594.36 1290.73 587.37 1287.23L321.65 1133.32L62.93 1283.74L741.2 1679L1419.48 1287.23L1160.75 1136.82L895.04 1290.73C884.55 1297.73 874.06 1290.73 874.06 1276.74L874.06 912.96C874.06 902.46 881.05 891.97 888.05 888.47L1202.71 706.58C1213.2 699.58 1223.69 706.58 1223.69 720.57L1223.69 1028.39L1485.9 1175.3L1485.9 1175.3Z" />
	<path id="Layer" class="shp1" d="M741.2 1679L1419.48 1287.23L1160.75 1136.82L895.04 1290.73C884.55 1297.73 874.06 1290.73 874.06 1276.74L874.06 912.96C874.06 902.46 881.05 891.97 888.05 888.47L1202.71 706.58C1213.2 699.58 1223.69 706.58 1223.69 720.57L1223.69 1028.39L1482.41 1178.8L1482.41 391.77L741.2 822.01L741.2 1679Z" />
	<path id="Layer" class="shp2" d="M807.63 0L807.63 300.82L1073.35 454.73C1083.84 461.73 1083.84 475.72 1073.35 479.21L758.69 661.11C748.2 668.1 737.71 664.6 730.72 661.11L416.05 479.21C405.56 475.72 405.56 458.23 416.05 454.73L681.77 300.82L681.77 0L0 391.77L741.2 822.01L1482.41 391.77L807.63 0Z" />
	<path id="Layer" class="shp0" d="M590.87 1290.73L325.15 1136.82L66.43 1287.23L744.7 1679L744.7 822.01L0 391.77L0 1175.3L0 1171.8L0 1175.3L258.72 1024.89L258.72 717.07C258.72 706.58 272.71 699.58 279.7 703.08L594.36 884.97C604.85 891.97 608.35 898.96 608.35 909.46L608.35 1273.24C611.84 1287.23 601.35 1297.73 590.87 1290.73L590.87 1290.73Z" />
</svg>