<?xml version="1.0" encoding="utf-8"?>
<!-- Generator: Adobe Illustrator 16.0.0, SVG Export Plug-In . SVG Version: 6.00 Build 0)  -->
<svg version="1.2" baseProfile="tiny" id="Layer_1" xmlns="http://www.w3.org/2000/svg" xmlns:xlink="http://www.w3.org/1999/xlink"
	 x="0px" y="0px" width="1375px" height="345px" viewBox="0 0 1375 345" overflow="scroll" xml:space="preserve">
<g>
	<path d="M413.141,259.742c-1.927,0-3.493-1.577-3.493-3.49v-21.565c0-1.926,1.199-4.527,2.67-5.764l114.953-97.19
		c1.466-1.241,1.095-2.258-0.829-2.258H426.73c-1.924,0-3.497-1.573-3.497-3.497v-19.538c0-1.914,1.573-3.49,3.497-3.49h160.642
		c1.92,0,3.497,1.576,3.497,3.49v17.611c0,1.927-1.203,4.509-2.677,5.749L468.09,231.067c-1.473,1.241-1.102,2.251,0.824,2.251
		h123.302c1.913,0,3.494,1.577,3.494,3.496v19.438c0,1.913-1.581,3.49-3.494,3.49H413.141z"/>
	<path d="M608.377,106.445c0-1.92,1.572-3.496,3.494-3.496h84.557c1.927,0,5.075,0.029,6.985,0.052c0,0,28.146,0.466,37.057,1.496
		c8.904,1.037,16.873,3.194,23.893,6.472c7.036,3.282,12.901,7.653,17.578,13.101c4.689,5.459,7.037,11.577,7.037,18.351
		c0,7.339-2.895,14.077-8.678,20.21c-5.775,6.129-13.613,10.726-23.507,13.795c13.953,2.776,24.69,7.516,32.185,14.219
		c7.498,6.709,11.245,14.594,11.245,23.639c0,7.132-2.413,14.061-7.265,20.807c-4.838,6.731-11.451,12.122-19.839,16.146
		c-8.388,4.025-18.728,6.503-31.007,7.431c-7.714,0.572-26.303,0.934-55.775,1.075h-74.467c-1.922,0-3.494-1.574-3.494-3.501
		V106.445z M658.117,129.045c-1.918,0-3.494,1.571-3.494,3.489v29.271c0,1.923,1.576,3.497,3.494,3.497h23.318
		c1.917,0,5.067-0.01,6.991-0.025c0,0,25.721-0.15,30.099-0.511c7.908-0.642,14.134-2.505,18.657-5.61
		c4.539-3.101,6.805-7.187,6.805-12.25c0-4.85-1.953-8.782-5.854-11.818c-3.907-3.032-9.716-4.872-17.429-5.506
		c-4.579-0.359-17.754-0.538-39.525-0.538H658.117z M658.117,191.399c-1.918,0-3.494,1.574-3.494,3.486v34.943
		c0,1.912,1.576,3.489,3.494,3.489h35.819c1.926,0,5.059-0.017,6.985-0.036c0,0,23.743-0.282,28.223-0.932
		c6.87-0.849,12.476-2.934,16.792-6.242c4.318-3.32,6.486-7.762,6.486-13.322c0-4.711-1.674-8.691-4.988-11.984
		c-3.354-3.268-8.162-5.659-14.467-7.154c-6.297-1.504-19.969-2.248-41.006-2.248H658.117z"/>
	<path d="M808.689,259.742c-1.918,0-3.486-1.574-3.486-3.501V145.642c0-1.925,1.568-3.498,3.486-3.498h66.008
		c1.93,0,5.072,0.058,6.993,0.121c0,0,28.204,0.939,36.518,3.048c8.325,2.113,14.978,5.868,19.974,11.272
		c5.002,5.401,7.508,11.58,7.508,18.529c0,8.816-3.789,16.109-11.375,21.851c-7.57,5.755-18.891,9.375-33.971,10.87
		c7.496,3.004,13.686,6.289,18.569,9.868c4.89,3.589,11.46,9.945,19.745,19.103l18.614,20.36c1.295,1.408,0.79,2.576-1.146,2.576
		H921.65c-1.925,0-4.6-1.129-5.945-2.503l-20.174-20.592c-1.354-1.379-3.566-3.607-4.935-4.965c0,0-12.512-12.436-15.793-14.825
		c-3.278-2.376-6.759-4.001-10.435-4.884c-3.672-0.88-9.482-1.326-17.461-1.326h-3.532c-1.915,0-3.498,1.568-3.498,3.496v42.098
		c0,1.927-1.563,3.501-3.487,3.501H808.689z M839.878,188.38c0,1.93,1.583,3.496,3.498,3.496h18.665
		c1.933,0,5.072-0.028,6.988-0.063c0,0,23.545-0.414,27.678-1.377c4.139-0.967,7.384-2.627,9.729-4.974
		c2.35-2.347,3.512-5.298,3.512-8.83c0-3.953-1.54-7.147-4.627-9.581c-3.089-2.431-7.441-3.972-13.059-4.61
		c-2.813-0.267-11.251-0.4-25.32-0.4h-23.565c-1.915,0-3.498,1.571-3.498,3.498V188.38z"/>
	<path d="M951.656,145.642c0-1.925,1.564-3.494,3.489-3.494h27.692c1.925,0,3.493,1.569,3.493,3.494v56.695
		c0,1.93,0.045,5.072,0.093,6.99c0,0,0.339,13.172,1.208,16.168c1.473,4.803,5.002,8.664,10.59,11.578
		c5.589,2.921,13.215,4.382,22.905,4.382c9.846,0,17.269-1.383,22.266-4.133c5.001-2.757,8.009-6.14,9.03-10.156
		c1.01-4.006,1.512-10.667,1.512-19.972v-61.552c0-1.925,1.571-3.494,3.504-3.494h27.685c1.924,0,3.504,1.569,3.504,3.494v54.773
		c0,1.922-0.07,5.064-0.144,6.991c0,0-0.796,20.591-2.675,26.429c-1.876,5.817-5.335,10.749-10.371,14.758
		c-5.032,4.006-11.772,7.202-20.214,9.58c-8.435,2.382-19.443,3.566-33.042,3.566c-16.396,0-28.841-1.289-37.31-3.887
		c-8.485-2.591-15.175-5.962-20.09-10.104c-4.931-4.142-8.179-8.488-9.729-13.037c-2.271-6.736-3.396-16.688-3.396-29.836V145.642z"
		/>
	<path d="M1090.455,221.476l30.254-2.015c1.924-0.126,4.139,1.196,4.942,2.951c0,0,4.692,10.264,10.907,13.902
		c6.209,3.64,14.588,5.451,25.129,5.451c11.175,0,19.584-1.611,25.252-4.845c5.653-3.244,8.494-7.024,8.494-11.347
		c0-2.792-1.19-5.148-3.582-7.108c-2.373-1.947-6.528-3.645-12.459-5.092c-4.071-0.957-13.327-2.678-27.778-5.125
		c-18.599-3.15-31.636-7.032-39.141-11.631c-10.542-6.486-15.82-14.359-15.82-23.674c0-5.982,2.491-11.592,7.442-16.797
		c4.971-5.217,12.113-9.189,21.446-11.913c9.338-2.73,20.603-4.093,33.801-4.093c21.562,0,37.789,3.231,48.685,9.706
		c10.906,6.469,16.626,15.106,17.17,25.909l-31.19,0.934c-1.919,0.062-4.136-1.323-4.926-3.075c0,0-3.24-7.202-8.12-9.847
		c-4.883-2.652-12.204-3.974-21.966-3.974c-10.08,0-17.97,1.417-23.673,4.25c-3.67,1.821-5.51,4.252-5.51,7.307
		c0,2.778,1.724,5.156,5.163,7.13c4.367,2.511,14.992,5.138,31.862,7.862c16.886,2.727,29.361,5.55,37.44,8.461
		c8.08,2.912,14.411,6.898,18.989,11.951c4.567,5.055,6.851,11.295,6.851,18.734c0,6.738-2.74,13.046-8.202,18.925
		c-5.473,5.889-13.2,10.256-23.198,13.119c-9.999,2.86-22.462,4.303-37.376,4.303c-21.723,0-38.396-3.448-50.032-10.323
		C1099.663,244.648,1092.709,234.631,1090.455,221.476"/>
	<path d="M1238.426,259.742c-1.93,0-3.498-1.577-3.498-3.49v-110.61c0-1.925,1.568-3.498,3.498-3.498h27.692
		c1.93,0,3.496,1.573,3.496,3.498v39.291c0,1.924,1.568,3.502,3.495,3.502h60.972c1.918,0,3.495-1.578,3.495-3.502v-39.291
		c0-1.925,1.572-3.498,3.496-3.498h27.687c1.932,0,3.501,1.573,3.501,3.498v110.61c0,1.913-1.569,3.49-3.501,3.49h-27.687
		c-1.924,0-3.496-1.577-3.496-3.49v-44.434c0-1.924-1.577-3.495-3.495-3.495h-60.972c-1.927,0-3.495,1.571-3.495,3.495v44.434
		c0,1.913-1.566,3.49-3.496,3.49H1238.426z"/>
	<path fill-rule="evenodd" d="M230.631,2.479c17.974-1.022,30.89,18.38,36.307,31.407c3.087,7.408,5.669,19.487-1.774,23.15
		c-5.816,2.868-12.776,3.314-21.009,4.392c-19.656,2.555-32.153-2.137-39.264-14.03c-2.04-3.407-4.174-9.413-2.907-15.377
		c2.478-11.767,9.751-21.142,18.848-26.443C222.527,4.583,226.779,2.699,230.631,2.479"/>
	<path d="M175.555,73.338c10.53,0.017,21.536,1.723,31.792,4.448c11.222,2.992,21.772,6.947,30.615,10.472
		c16.941,6.76,29.359,11.694,29.359,11.694s8.555-5.91,11.816-8.108c7.896-4.861,15.245-9.758,24.978-11.878
		c3.148-0.683,9.012-0.711,11.946-0.19c11.524,2.051,18.519,7.068,19.494,16.845c1.322,13.14-15.456,27.048-19.402,30.754
		c-3.53,3.308-20.448,19.289-41.254,20.958c-10.125,0.819-19.697-2.515-26.584-5.408c-2.299-0.969-8.286-3.952-8.286-3.952
		s-9.247,8.803-17.734,17.693c-8.528,8.927-29.653,34.774-29.653,34.825c23.315-1.676,50.092,5.764,67.072,12.32
		c39.933,15.424,78.464,42.565,104.5,79.271c8.938,12.619,17.463,26.542,23.917,41.482c1.769,4.104,5.258,12.798,2.151,16.508
		c-3.222,3.837-10.644-0.717-14.825-2.754c-7.604-3.69-23.806-16.072-35.515-25.462c-5.353-4.301-13.622-11.73-15.063-18.291
		c-0.915-4.201,1.632-9.691,2.511-13.996c1.413-6.884-2.602-12.202-5.38-15.663c-6.52-8.131-17.7-13.209-28.217-17.331
		c-20.877-8.207-35.512-10.828-70.904-15.308c-35.387-4.478-59.074-1.658-61.696-1.555c-2.727,3.239-6.233,7.408-8.962,10.647
		c-7.529,7.804-35.542,35.465-43.643,41.604c-14.49,10.978-30.679,21.625-47.822,29.893c-32.998,15.907-54.045,13.394-56.44,10.758
		c-2.388-2.632-2.48-10.125,2.545-20.42C11.942,292.814,24,279.352,29.56,273.64c5.55-5.725,15.867-15.192,29.888-25.828
		c19.372-14.707,48.836-29.51,63.488-36.703c20.441-10.047,40.899-14.871,46.034-16.262c28.102-38.622,57.866-63.132,57.866-63.132
		s-11.939-7.634-16.979-11c-10.969-7.324-21.777-15.167-34.432-20.687c-7.968-3.47-21.131-8.375-32.524-5.491
		c-14.021,3.542-32.48,14.068-39.889,23.156c-2.466,3.019-4.555,8.54-5.38,13.239c-0.659,3.709,0.361,9.116-0.64,11.778
		c-1.758,4.668-9.371,8.8-15.3,11.4c-8.057,3.526-16.333,7.167-25.513,9.493c-3.095,0.779-8.551,2.251-10.238-0.038
		c-2.239-3.04,1.247-7.598,2.432-9.693c4.817-8.549,10.601-15.721,16.696-22.994c18.576-22.159,38.798-38.674,67.194-49.979
		C139.39,78.063,153.073,73.306,175.555,73.338 M314.304,92.567c-4.838,0.455-10.148,1.359-14.517,3.064
		c-6.452,2.508-12.192,5.549-18.108,9.122c13.05,3.964,28.06,6.216,39.853-0.924c2.869-1.742,5.455-4.091,5.579-6.881
		C327.257,93.803,319.135,92.116,314.304,92.567 M137.722,233.584c0,0-6.536,1.196-10.047,1.91
		c-3.505,0.72-11.601,3.035-17.027,4.446c-14.848,3.851-53.779,18.961-71.287,36.447c-5.713,5.704-10.198,12.508-13.525,20.613
		c-0.913,2.224-2.765,7.381-0.904,10.48c1.585,2.636,6.29,3.217,10.324,2.333c8.286-1.815,15.755-5.227,22.403-8.889
		c24.983-13.782,48.977-33.793,63.883-49.884c4.827-5.214,11.007-11.644,12.754-13.588
		C136.046,235.494,137.722,233.584,137.722,233.584"/>
</g>
</svg>
