<?xml version="1.0" encoding="UTF-8" standalone="no"?>
<!DOCTYPE svg PUBLIC "-//W3C//DTD SVG 1.1//EN" "http://www.w3.org/Graphics/SVG/1.1/DTD/svg11.dtd">
<svg width="100%" height="100%" viewBox="0 0 800 800" version="1.1" xmlns="http://www.w3.org/2000/svg" xmlns:xlink="http://www.w3.org/1999/xlink" xml:space="preserve" xmlns:serif="http://www.serif.com/" style="fill-rule:evenodd;clip-rule:evenodd;stroke-linejoin:round;stroke-miterlimit:2;">
    <g transform="matrix(1,0,0,1,0.00861334,0)">
        <path d="M580.65,59.025C560.65,49.65 541.75,40.8 524.525,32.15C480.4,10.05 440.425,-0.675 402.275,-0.675C325.475,-0.675 272.35,43.625 239.025,76.95L77.425,238.725C-9.05,325.3 -22.85,413.425 32.675,524.5C41.3,541.75 50.15,560.7 59.525,580.775C110.075,688.9 162.325,800.675 247.85,800.675C250.25,800.675 252.625,800.6 255.05,800.4C343.3,793.5 368.35,679.85 390.45,579.625C393.95,563.75 397.3,548.525 400.7,534.875C406.65,511.275 418.325,496.625 450.35,464.525L454.75,460.1L457.45,457.4L464.575,450.3C496.675,418.2 511.325,406.525 534.975,400.575C548.5,397.175 563.675,393.825 579.525,390.35C679.7,368.25 793.275,343.2 800.15,254.775C807.1,165.075 691.975,111.15 580.625,59.025L580.65,59.025ZM748.8,250.25C743.925,312.575 604.425,330.975 521.375,351.8C484.65,361.075 462.3,380.525 428.575,414.25C426.225,416.6 423.85,418.95 421.475,421.325C419.1,423.7 416.75,426.1 414.4,428.425C380.675,462.2 361.275,484.525 352.025,521.3C331.175,604.425 312.825,744.1 250.575,748.975C249.45,749.05 248.325,749.1 247.2,749.1C181.15,749.1 125.575,598.9 76.55,500.925C26.75,401.3 48.075,336.7 111.975,272.725C124.225,260.45 139.5,245.2 158.175,226.5C177.25,207.4 199.95,184.675 226.85,157.75C245.525,139.05 260.775,123.825 273.05,111.525C312.75,71.8 352.7,48.525 401.1,48.525C430.625,48.525 463.325,57.15 501,76.075C600.575,126 754.05,182.7 748.8,250.275L748.8,250.25ZM374.05,274.425L424.05,274.425L424.05,224.425L374.05,224.425L374.05,274.425ZM374.05,199.425L424.05,199.425L424.05,149.425L374.05,149.425L374.05,199.425ZM449.05,199.425L499.05,199.425L499.05,149.425L449.05,149.425L449.05,199.425ZM449.05,274.425L499.05,274.425L499.05,224.425L449.05,224.425L449.05,274.425ZM257.725,424.55L276.75,405.525C286.125,396.15 286.125,380.95 276.75,371.575C267.375,362.2 252.2,362.2 242.825,371.575L223.8,390.6L204.775,371.575C195.4,362.2 180.225,362.2 170.85,371.575C161.475,380.95 161.475,396.15 170.85,405.525L189.875,424.55L170.85,443.575C161.475,452.95 161.475,468.15 170.85,477.5C180.225,486.85 195.425,486.875 204.775,477.5L223.8,458.475L243.375,478.05C252.75,487.425 267.925,487.425 277.3,478.05C286.675,468.675 286.675,453.475 277.3,444.1L257.725,424.55Z"
              style="fill:white;fill-rule:nonzero;stroke:white;stroke-width:1px;"/>
    </g>
</svg>
