<?xml version="1.0" encoding="UTF-8" standalone="no"?>
<!DOCTYPE svg PUBLIC "-//W3C//DTD SVG 1.1//EN" "http://www.w3.org/Graphics/SVG/1.1/DTD/svg11.dtd">
<svg width="100%" height="100%" viewBox="0 0 800 800" version="1.1" xmlns="http://www.w3.org/2000/svg" xmlns:xlink="http://www.w3.org/1999/xlink" xml:space="preserve" xmlns:serif="http://www.serif.com/" style="fill-rule:evenodd;clip-rule:evenodd;stroke-linejoin:round;stroke-miterlimit:2;">
    <path d="M162.5,350L37.5,350C16.789,350 0,366.789 0,387.5L0,762.5C0,783.211 16.789,800 37.5,800L162.5,800C183.211,800 200,783.211 200,762.5L200,387.5C200,366.789 183.211,350 162.5,350ZM100,737.5C79.289,737.5 62.5,720.711 62.5,700C62.5,679.289 79.289,662.5 100,662.5C120.711,662.5 137.5,679.289 137.5,700C137.5,720.711 120.711,737.5 100,737.5ZM600,127.269C600,193.544 559.422,230.719 548.005,275L706.947,275C759.13,275 799.755,318.353 799.998,365.778C800.13,393.806 788.208,423.98 769.625,442.648L769.453,442.82C784.822,479.284 782.323,530.378 754.909,566.991C768.473,607.452 754.802,657.153 729.313,683.798C736.028,711.295 732.819,734.697 719.706,753.536C687.816,799.355 608.775,800 541.936,800L537.491,799.998C462.042,799.972 400.294,772.502 350.678,750.428C325.745,739.336 293.145,725.605 268.411,725.15C258.192,724.963 250,716.623 250,706.403L250,372.388C250,367.388 252.003,362.589 255.559,359.073C317.456,297.911 344.072,233.156 394.805,182.338C417.936,159.163 426.348,124.156 434.481,90.303C441.43,61.395 455.964,0 487.5,0C525,0 600,12.5 600,127.269Z" style="fill:white;fill-rule:nonzero;"/>
</svg>
