<?xml version="1.0" encoding="UTF-8" standalone="no"?>
<!DOCTYPE svg PUBLIC "-//W3C//DTD SVG 1.1//EN" "http://www.w3.org/Graphics/SVG/1.1/DTD/svg11.dtd">
<svg width="100%" height="100%" viewBox="0 0 800 800" version="1.1" xmlns="http://www.w3.org/2000/svg" xmlns:xlink="http://www.w3.org/1999/xlink" xml:space="preserve" xmlns:serif="http://www.serif.com/" style="fill-rule:evenodd;clip-rule:evenodd;stroke-linejoin:round;stroke-miterlimit:2;">
    <g>
        <path d="M792.934,375.714C707.827,227.047 563.6,129.25 399.998,129.25C236.395,129.25 92.173,227.047 7.066,375.714C4.795,379.694 0.256,389.456 0.012,399.17C-0.256,408.908 3.819,418.573 5.894,422.236C90.855,572.05 235.639,670.75 399.998,670.75C564.358,670.75 709.145,572.05 794.106,422.236C796.181,418.573 800.256,408.909 799.988,399.17C799.744,389.456 795.205,379.694 792.934,375.714ZM399.998,583.273C299.928,583.273 218.8,502.145 218.8,402.075C218.8,302.005 299.928,220.873 399.998,220.873C500.069,220.873 581.2,302.005 581.2,402.075C581.2,502.145 500.069,583.273 399.998,583.273Z" style="fill:white;fill-rule:nonzero;"/>
        <path d="M399.998,281.845C380.253,281.845 361.875,287.067 345.448,295.511L389.723,395.85L287.752,359.995C282.82,373.127 279.769,387.211 279.769,402.077C279.769,468.441 333.636,522.308 400,522.308C466.366,522.308 520.23,468.441 520.23,402.077C520.23,335.713 466.366,281.845 399.998,281.845Z" style="fill:white;fill-rule:nonzero;"/>
    </g>
</svg>
