<?xml version="1.0" encoding="UTF-8" standalone="no"?>
<!DOCTYPE svg PUBLIC "-//W3C//DTD SVG 1.1//EN" "http://www.w3.org/Graphics/SVG/1.1/DTD/svg11.dtd">
<svg width="100%" height="100%" viewBox="0 0 400 400" version="1.1" xmlns="http://www.w3.org/2000/svg" xmlns:xlink="http://www.w3.org/1999/xlink" xml:space="preserve" xmlns:serif="http://www.serif.com/" style="fill-rule:evenodd;clip-rule:evenodd;stroke-linejoin:round;stroke-miterlimit:2;">
    <g transform="matrix(1,0,0,1,-7,23)">
        <rect x="80" y="113" width="254" height="34" style="fill:white;"/>
        <path d="M345.51,113C345.51,106.643 340.357,101.49 334,101.49L80,101.49C73.643,101.49 68.49,106.643 68.49,113L68.49,147C68.49,153.357 73.643,158.51 80,158.51L334,158.51C340.357,158.51 345.51,153.357 345.51,147L345.51,113ZM334,113L80,113L80,147L334,147L334,113Z" style="fill:white;"/>
    </g>
    <g transform="matrix(1,0,0,1,-7,117)">
        <rect x="80" y="113" width="254" height="34" style="fill:white;"/>
        <path d="M345.51,113C345.51,106.643 340.357,101.49 334,101.49L80,101.49C73.643,101.49 68.49,106.643 68.49,113L68.49,147C68.49,153.357 73.643,158.51 80,158.51L334,158.51C340.357,158.51 345.51,153.357 345.51,147L345.51,113ZM334,113L80,113L80,147L334,147L334,113Z" style="fill:white;"/>
    </g>
</svg>
