<?xml version="1.0" encoding="UTF-8" standalone="no"?>
<!DOCTYPE svg PUBLIC "-//W3C//DTD SVG 1.1//EN" "http://www.w3.org/Graphics/SVG/1.1/DTD/svg11.dtd">
<svg width="100%" height="100%" viewBox="0 0 800 800" version="1.1" xmlns="http://www.w3.org/2000/svg" xmlns:xlink="http://www.w3.org/1999/xlink" xml:space="preserve" xmlns:serif="http://www.serif.com/" style="fill-rule:evenodd;clip-rule:evenodd;stroke-linejoin:round;stroke-miterlimit:2;">
    <path d="M400,60.525L507.4,283.25L751.625,319.55L574.75,495.975L580.7,531.375L616.075,742.45L399.975,626.225L183.9,742.525L219.275,531.425L225.2,496.025L48.375,319.55L292.575,283.25L308.625,250.025L400,60.525ZM399.975,12.15C377.575,12.15 357.175,24.775 347.65,44.55L257.1,232.55L48.725,263.525C27.325,266.725 9.55,281.35 2.65,301.325C-4.25,321.375 0.975,343.425 16.075,358.475L168.725,510.975L133.3,722.425C129.725,743.725 138.95,765.1 157.025,777.575C166.95,784.4 178.625,787.85 190.325,787.85C199.95,787.85 209.575,785.525 218.3,780.825L399.95,683.025L581.6,780.825C590.325,785.5 599.975,787.85 609.55,787.85C621.25,787.85 632.9,784.4 642.875,777.575C660.925,765.125 670.15,743.75 666.55,722.425L631.125,510.975L783.875,358.475C799,343.45 804.175,321.35 797.275,301.325C790.375,281.3 772.575,266.7 751.2,263.525L542.875,232.55L452.275,44.55C442.825,24.775 422.4,12.175 399.95,12.175L399.975,12.15Z"
          style="fill:white;fill-rule:nonzero;stroke:white;stroke-width:1px;"/>
    <path d="M23,295L270,264L399.967,37L424,44L544,265L763,292L773,335L617,512L640,650L633,754L608,752L413,668L365,662L198,764L150,739L206,496L24,326L23,295Z" style="fill:white;stroke:white;stroke-width:1px;stroke-linecap:round;stroke-miterlimit:1.5;"/>
</svg>
