<?xml version="1.0" encoding="UTF-8" standalone="no"?>
<!DOCTYPE svg PUBLIC "-//W3C//DTD SVG 1.1//EN" "http://www.w3.org/Graphics/SVG/1.1/DTD/svg11.dtd">
<svg width="100%" height="100%" viewBox="0 0 800 800" version="1.1" xmlns="http://www.w3.org/2000/svg" xmlns:xlink="http://www.w3.org/1999/xlink" xml:space="preserve" xmlns:serif="http://www.serif.com/" style="fill-rule:evenodd;clip-rule:evenodd;stroke-linejoin:round;stroke-miterlimit:2;">
    <path d="M133.333,458.1L100,477.4C84.165,486.543 78.657,507.097 87.8,522.933L137.4,608.867C146.543,624.702 167.097,630.209 182.933,621.067L216.667,601.667C237.125,589.863 262.408,589.863 282.867,601.667L283.533,602.033C304.107,613.824 316.847,635.788 316.867,659.5L316.867,700C316.867,718.286 331.914,733.333 350.2,733.333L450.2,733.333C468.486,733.333 483.533,718.286 483.533,700L483.533,659.4C483.527,635.75 496.202,613.828 516.7,602.033L517.4,601.633C537.859,589.829 563.141,589.829 583.6,601.633L617.2,621.033C633.036,630.176 653.59,624.669 662.733,608.833L712.333,522.9C715.228,517.853 716.751,512.135 716.751,506.316C716.751,494.387 710.348,483.334 700,477.4L666.667,458.1C646.026,446.231 633.281,424.143 633.333,400.333L633.333,399.633C633.272,375.83 646.021,353.748 666.667,341.9L700,322.6C715.835,313.457 721.343,292.903 712.2,277.067L662.533,191.133C653.39,175.298 632.836,169.791 617,178.933L583.333,198.333C562.875,210.137 537.592,210.137 517.133,198.333L516.667,198C496.093,186.209 483.353,164.246 483.333,140.533L483.333,100C483.333,81.714 468.286,66.667 450,66.667L350,66.667C331.714,66.667 316.667,81.714 316.667,100L316.667,143.133C316.637,165.206 304.796,185.654 285.667,196.667L280.567,199.6C261.476,210.606 237.891,210.606 218.8,199.6L183,178.933C167.164,169.791 146.61,175.298 137.467,191.133L87.867,277.067C78.713,292.885 84.188,313.434 100,322.6L133.333,341.9C153.974,353.769 166.719,375.857 166.667,399.667L166.667,400.367C166.728,424.17 153.979,446.252 133.333,458.1ZM400,300C454.858,300 500,345.142 500,400C500,454.858 454.858,500 400,500C345.142,500 300,454.858 300,400C300,345.142 345.142,300 400,300Z" style="fill:white;fill-rule:nonzero;"/>
</svg>
