<?xml version="1.0" encoding="UTF-8" standalone="no"?>
<!DOCTYPE svg PUBLIC "-//W3C//DTD SVG 1.1//EN" "http://www.w3.org/Graphics/SVG/1.1/DTD/svg11.dtd">
<svg width="100%" height="100%" viewBox="0 0 1920 1080" version="1.1" xmlns="http://www.w3.org/2000/svg" xmlns:xlink="http://www.w3.org/1999/xlink" xml:space="preserve" xmlns:serif="http://www.serif.com/" style="fill-rule:evenodd;clip-rule:evenodd;stroke-linejoin:round;stroke-miterlimit:2;">
    <g transform="matrix(0.983607,0,0,0.960854,31.4754,42.2776)">
        <rect x="-32" y="-44" width="1952" height="1124" style="fill:rgb(174,174,174);"/>
    </g>
    <g transform="matrix(0.208333,0,0,9.35135,-1.22862e-13,42)">
        <rect x="0" y="0" width="1920" height="111" style="fill:rgb(54,54,54);"/>
    </g>
    <g transform="matrix(0.875776,0,0,0.40367,51.5901,48.8165)">
        <path d="M367,77.25C367,62.21 361.372,50 354.44,50L57.56,50C50.628,50 45,62.21 45,77.25L45,131.75C45,146.79 50.628,159 57.56,159L354.44,159C361.372,159 367,146.79 367,131.75L367,77.25Z" style="fill:rgb(174,174,174);"/>
    </g>
    <g transform="matrix(1.24224,0,0,8.57798,-55.9006,-287.899)">
        <rect x="45" y="50" width="322" height="109" style="fill:rgb(125,125,125);"/>
    </g>
    <g transform="matrix(3.93443,0,0,0.505263,-1219.67,-33.3474)">
        <rect x="310" y="66" width="488" height="95" style="fill:rgb(27,27,27);"/>
    </g>
    <g transform="matrix(3.93443,0,0,0.210526,-1219.67,1046.11)">
        <rect x="310" y="66" width="488" height="95" style="fill:rgb(27,27,27);"/>
    </g>
    <g transform="matrix(0.916667,0,0,1.04762,-3.83333,-132.143)">
        <path d="M86,202.5C86,196.705 80.623,192 74,192L50,192C43.377,192 38,196.705 38,202.5L38,223.5C38,229.295 43.377,234 50,234L74,234C80.623,234 86,229.295 86,223.5L86,202.5Z" style="fill:rgb(174,174,174);"/>
    </g>
</svg>
