<?xml version="1.0" encoding="UTF-8" standalone="no"?>
<!DOCTYPE svg PUBLIC "-//W3C//DTD SVG 1.1//EN" "http://www.w3.org/Graphics/SVG/1.1/DTD/svg11.dtd">
<svg width="100%" height="100%" viewBox="0 0 192 192" version="1.1" xmlns="http://www.w3.org/2000/svg" xmlns:xlink="http://www.w3.org/1999/xlink" xml:space="preserve" xmlns:serif="http://www.serif.com/" style="fill-rule:evenodd;clip-rule:evenodd;stroke-linecap:round;stroke-linejoin:round;stroke-miterlimit:1.5;">
    <path d="M28,15L49,5L74,5L83,7L91,6L96,6L106,10L113,27L109,41L99,48L88,44L72,29L60,27L51,37L46,53L50,69L58,81L68,87L74,85L76,79L70,78L62,74L62,64L72,57C72,57 86.068,55.384 88,55C89.932,54.616 107,56 107,56L118,58L124,65L124,75L135,80L147,81L152,88L149,98L143,101L142,157L145,161L154,164L163,161L173,144L180,145L185,151L189,166L182,179L176,186L158,187L100,185L91,181L91,172L98,166L101,110L99,103L92,108L62,114L31,107L16,93L5,75L5,49L9,33L28,15Z" style="fill:rgb(244,254,0);stroke:black;stroke-width:1px;"/>
    <g transform="matrix(0.1,0,0,-0.1,0,192)">
        <path d="M501,1899C377,1877 247,1806 157,1710C-51,1488 -36,1122 191,916C383,743 687,698 912,810C946,827 975,838 978,835C987,826 993,357 986,316C980,287 971,276 940,260C851,215 847,99 933,53C961,37 1005,34 1320,30C1515,27 1681,21 1687,17C1713,1 1778,30 1818,75C1875,140 1905,226 1905,326C1905,395 1902,411 1880,443C1849,489 1794,515 1747,506C1704,498 1689,481 1652,400C1632,354 1615,331 1596,322C1561,307 1478,306 1462,322C1453,331 1450,410 1450,615L1450,897L1491,915C1544,939 1560,964 1560,1022C1560,1094 1521,1134 1430,1154C1392,1163 1339,1170 1312,1170L1263,1170L1268,1225C1274,1296 1246,1340 1178,1370C1055,1423 778,1421 672,1366C631,1345 592,1296 585,1256C571,1185 634,1110 708,1110C742,1110 749,1100 725,1080C702,1061 651,1078 605,1121C546,1175 509,1261 503,1360C495,1475 505,1524 546,1570C612,1642 695,1633 781,1544C873,1449 884,1440 925,1429C977,1415 1045,1423 1079,1447C1093,1458 1115,1486 1128,1511C1161,1572 1156,1691 1118,1765C1062,1872 998,1909 909,1886C866,1875 851,1875 812,1887C753,1905 572,1912 501,1899ZM795,1833C850,1818 865,1818 913,1830C964,1842 971,1841 1002,1823C1042,1800 1088,1712 1097,1642C1109,1535 1037,1453 952,1478C912,1490 899,1500 817,1587C791,1615 754,1645 736,1654C695,1674 611,1675 567,1656C491,1625 440,1524 440,1406C441,1197 561,1020 704,1020C740,1020 752,1025 769,1046C793,1076 797,1132 776,1149C769,1155 742,1163 716,1166C658,1174 640,1191 640,1235C640,1274 677,1310 737,1332C789,1350 1081,1350 1132,1332C1205,1306 1241,1242 1207,1196C1197,1182 1176,1176 1129,1173C949,1161 850,1101 850,1005C850,954 865,931 912,910L953,892L904,867C816,822 743,806 635,806C470,806 339,857 221,966C121,1058 70,1181 69,1335C68,1483 116,1596 223,1697C335,1803 456,1849 623,1850C695,1850 753,1844 795,1833ZM1348,1110C1477,1095 1521,1066 1506,1004C1502,988 1485,973 1455,959C1419,942 1408,931 1400,901C1388,858 1387,403 1399,341C1413,272 1437,255 1523,255C1634,255 1658,273 1717,405C1731,436 1741,446 1764,448C1800,452 1837,419 1850,370C1870,295 1826,157 1762,96C1734,70 1727,68 1683,75C1657,78 1484,84 1299,88C930,96 930,96 930,156C930,185 935,192 970,210C1045,248 1045,248 1044,570C1043,914 1042,919 965,950C914,971 910,975 910,1004C910,1059 963,1093 1075,1109C1159,1121 1251,1121 1348,1110Z" style="fill-rule:nonzero;"/>
    </g>
</svg>
