<?xml version="1.0" encoding="UTF-8" standalone="no"?>
<!DOCTYPE svg PUBLIC "-//W3C//DTD SVG 1.1//EN" "http://www.w3.org/Graphics/SVG/1.1/DTD/svg11.dtd">
<svg width="100%" height="100%" viewBox="0 0 1080 1080" version="1.1" xmlns="http://www.w3.org/2000/svg" xmlns:xlink="http://www.w3.org/1999/xlink" xml:space="preserve" xmlns:serif="http://www.serif.com/" style="fill-rule:evenodd;clip-rule:evenodd;stroke-linejoin:round;stroke-miterlimit:2;">
    <g id="_523339c2-3ca7-4b3c-91ab-0a13101e6064" serif:id="523339c2-3ca7-4b3c-91ab-0a13101e6064">
    </g>
    <g id="fc86939c-0b5f-49e0-85da-138fa05d70b4" transform="matrix(1,0,0,1,540,540)">
        <rect x="-33.084" y="-33.084" width="66.167" height="66.167" style="fill:rgb(180,180,180);"/>
    </g>
    <g transform="matrix(1,0,0,1,707.712,540)">
        <g id="b535ccaf-d8c0-405f-b9dd-67ead9774fe8">
            <rect x="-33.084" y="-33.084" width="66.167" height="66.167" style="fill:rgb(180,180,180);"/>
        </g>
    </g>
    <g id="b535ccaf-d8c0-405f-b9dd-67ead9774fe81" serif:id="b535ccaf-d8c0-405f-b9dd-67ead9774fe8" transform="matrix(1,0,0,1,371.48,708)">
        <rect x="-33.085" y="-33.085" width="66.17" height="66.17" style="fill:rgb(180,180,180);"/>
    </g>
    <g transform="matrix(1,0,0,1,540,708)">
        <g id="b535ccaf-d8c0-405f-b9dd-67ead9774fe82" serif:id="b535ccaf-d8c0-405f-b9dd-67ead9774fe8">
            <rect x="-33.085" y="-33.085" width="66.17" height="66.17" style="fill:rgb(180,180,180);"/>
        </g>
    </g>
    <g id="b535ccaf-d8c0-405f-b9dd-67ead9774fe83" serif:id="b535ccaf-d8c0-405f-b9dd-67ead9774fe8" transform="matrix(1,0,0,1,707.83,708.12)">
        <rect x="-33.085" y="-33.085" width="66.17" height="66.17" style="fill:rgb(180,180,180);"/>
    </g>
    <g id="b535ccaf-d8c0-405f-b9dd-67ead9774fe84" serif:id="b535ccaf-d8c0-405f-b9dd-67ead9774fe8" transform="matrix(1,0,0,1,707.71,373.01)">
        <rect x="-33.085" y="-33.085" width="66.17" height="66.17" style="fill:rgb(180,180,180);"/>
    </g>
</svg>
